<?xml version="1.0" standalone="no"?>
<!DOCTYPE svg PUBLIC "-//W3C//DTD SVG 20010904//EN"
 "http://www.w3.org/TR/2001/REC-SVG-20010904/DTD/svg10.dtd">
<svg version="1.0" xmlns="http://www.w3.org/2000/svg"
 width="1200.000000pt" height="1200.000000pt" viewBox="0 0 1200.000000 1200.000000"
 preserveAspectRatio="xMidYMid meet">
<metadata>
Created by potrace 1.14, written by Peter Selinger 2001-2017
</metadata>
<g transform="translate(0.000000,1200.000000) scale(0.100000,-0.100000)"
fill="#000000" stroke="none">
<path d="M1828 9994 c-2 -2 -31 -6 -63 -9 -33 -2 -72 -7 -87 -10 -16 -3 -38
-7 -50 -9 -13 -2 -54 -12 -93 -21 -38 -9 -78 -18 -87 -20 -9 -2 -26 -9 -37
-15 -12 -6 -21 -8 -21 -5 0 3 -13 -1 -30 -10 -16 -9 -30 -13 -30 -10 0 3 -17
-3 -37 -14 -21 -10 -41 -19 -45 -20 -32 -5 -248 -113 -248 -123 0 -5 -9 -8
-20 -8 -11 0 -20 -4 -20 -10 0 -5 -6 -10 -14 -10 -8 0 -16 -3 -18 -7 -1 -5
-30 -26 -63 -48 -33 -22 -62 -42 -65 -45 -3 -4 -15 -13 -28 -22 -23 -16 -133
-112 -187 -165 -16 -16 -55 -58 -85 -93 -30 -35 -63 -73 -73 -85 -89 -100
-231 -350 -292 -515 -15 -41 -31 -84 -36 -95 -9 -22 -45 -155 -54 -197 -3 -16
-7 -39 -10 -53 -13 -63 -16 -84 -23 -145 -8 -79 -8 -412 1 -460 3 -19 9 -57
12 -85 4 -27 9 -58 11 -67 3 -10 7 -30 10 -45 3 -16 9 -41 14 -58 5 -16 11
-41 14 -55 12 -65 82 -244 144 -365 19 -38 40 -80 46 -92 6 -13 14 -23 19 -23
4 0 7 -5 7 -11 0 -12 106 -169 142 -210 13 -15 39 -46 60 -70 50 -60 193 -200
253 -247 106 -83 322 -222 353 -226 7 -1 18 -8 24 -14 7 -7 19 -12 28 -12 9 0
21 -5 28 -12 6 -6 18 -13 26 -14 7 -1 29 -9 47 -17 56 -25 123 -49 148 -53 13
-3 31 -9 40 -13 9 -5 30 -12 46 -15 17 -3 48 -10 70 -15 50 -13 157 -32 210
-38 50 -5 331 -13 444 -13 134 0 90 -7 -84 -14 -194 -8 -292 -15 -410 -32 -22
-3 -53 -7 -70 -8 -16 -2 -46 -6 -65 -10 -19 -3 -46 -8 -60 -10 -14 -3 -61 -14
-105 -27 -44 -12 -92 -24 -108 -26 -15 -3 -30 -9 -33 -14 -3 -5 -12 -9 -21 -9
-21 0 -245 -109 -296 -144 -21 -14 -42 -26 -47 -26 -4 0 -10 -3 -12 -8 -1 -4
-28 -24 -58 -44 -30 -20 -67 -46 -81 -59 -14 -13 -45 -40 -70 -60 -143 -118
-341 -357 -415 -502 -9 -18 -20 -34 -23 -37 -27 -21 -139 -311 -158 -408 -8
-42 -11 -57 -13 -57 -2 0 -3 -8 -24 -146 -21 -140 -31 -245 -42 -439 -3 -36
-7 -482 -10 -992 l-6 -928 6001 0 6001 0 0 2000 c0 1593 -3 2000 -12 2001 -7
1 -17 1 -21 0 -5 -1 -39 -1 -75 -1 -88 1 -89 1 -222 1 -125 0 -149 0 -255 0
-38 0 -77 0 -85 0 -8 1 -42 0 -75 0 -33 0 -67 0 -75 0 -8 0 -49 0 -90 0 -41 0
-82 0 -90 0 -8 0 -60 0 -115 -1 -55 -1 -104 -1 -110 0 -5 1 -14 2 -19 1 -5 -1
-145 -4 -310 -7 -388 -6 -494 -12 -731 -39 -33 -3 -67 -8 -75 -10 -8 -2 -33
-7 -55 -10 -23 -3 -52 -8 -65 -11 -14 -3 -36 -7 -50 -10 -89 -18 -262 -74
-272 -89 -4 -5 -8 -6 -8 -2 0 4 -10 2 -22 -5 -13 -7 -25 -13 -28 -14 -32 -7
-220 -118 -310 -182 -55 -40 -201 -163 -250 -212 -31 -31 -156 -177 -175 -204
-11 -16 -29 -40 -41 -55 -21 -26 -128 -202 -129 -211 0 -3 -7 -16 -15 -30 -8
-14 -15 -27 -15 -30 -1 -3 -13 -31 -28 -62 -15 -31 -27 -62 -27 -67 0 -6 -4
-19 -9 -29 -8 -16 -40 -120 -46 -152 -2 -8 -4 -15 -5 -15 -1 0 -3 -13 -5 -30
-2 -16 -9 -50 -14 -75 -30 -135 -53 -386 -61 -657 -3 -112 -20 -124 -21 -15
-1 87 -7 227 -9 227 0 0 -3 34 -5 75 -2 41 -6 95 -10 120 -3 25 -8 65 -11 90
-11 92 -24 172 -29 181 -2 3 -7 28 -11 55 -3 27 -9 54 -12 59 -4 6 -8 19 -9
30 -8 45 -67 205 -105 280 -23 44 -46 90 -52 102 -6 13 -14 23 -18 23 -5 0 -8
5 -8 11 0 11 -106 170 -137 204 -10 12 -43 50 -73 85 -65 76 -102 113 -184
183 -33 29 -69 60 -81 70 -34 31 -193 137 -204 137 -6 0 -11 4 -11 9 0 5 -10
13 -22 16 -11 4 -44 21 -72 37 -28 17 -52 30 -53 30 -3 -1 -71 26 -98 38 -38
19 -202 68 -250 75 -11 2 -32 6 -47 9 -53 11 -83 16 -123 21 -22 3 -53 7 -70
9 -121 17 -312 31 -498 36 -48 1 -86 4 -84 6 1 2 120 5 262 8 143 2 271 7 285
10 14 3 45 9 70 12 25 3 54 8 65 11 11 2 29 6 40 8 11 3 29 7 40 9 93 21 279
84 327 112 15 8 30 14 33 14 18 -3 254 130 302 170 7 5 17 10 22 10 6 0 14 6
18 13 4 8 15 18 24 23 16 9 68 49 113 87 48 41 174 167 211 212 22 27 46 54
53 61 6 7 12 15 12 19 0 4 7 13 16 22 66 66 211 327 269 483 15 41 31 84 36
95 10 24 46 159 53 195 4 27 16 93 22 125 9 47 18 145 18 212 1 40 5 73 9 73
5 0 6 4 2 9 -3 5 -8 58 -10 118 -3 59 -7 119 -9 133 -2 14 -7 48 -11 75 -3 28
-11 68 -17 90 -6 22 -12 54 -15 70 -13 84 -93 297 -161 430 -19 39 -40 80 -46
92 -6 13 -14 23 -18 23 -5 0 -8 5 -8 11 0 12 -80 133 -92 137 -4 2 -8 10 -8
17 0 8 -6 18 -13 22 -7 4 -20 19 -29 33 -30 47 -179 202 -258 269 -30 25 -68
58 -85 73 -16 16 -34 28 -38 28 -4 0 -18 9 -30 21 -12 11 -38 30 -57 40 -19
11 -64 38 -100 60 -61 37 -102 58 -210 107 -51 23 -215 82 -245 88 -11 2 -56
13 -100 23 -76 19 -104 24 -220 38 -70 9 -377 9 -450 1 -33 -4 -85 -12 -115
-18 -30 -6 -69 -13 -87 -16 -17 -3 -62 -14 -100 -25 -37 -11 -76 -22 -86 -24
-9 -2 -22 -7 -27 -10 -5 -3 -19 -8 -29 -10 -49 -9 -331 -143 -331 -157 0 -5
-9 -8 -20 -8 -11 0 -23 -7 -26 -15 -4 -8 -12 -15 -19 -15 -8 0 -20 -6 -27 -12
-7 -7 -33 -26 -58 -43 -25 -16 -50 -34 -57 -40 -7 -5 -18 -14 -25 -20 -88 -68
-275 -250 -283 -276 -4 -11 -10 -17 -15 -14 -5 3 -16 -7 -24 -22 -8 -15 -23
-37 -33 -48 -26 -27 -149 -216 -165 -251 -7 -16 -15 -31 -18 -34 -6 -5 -53
-99 -55 -110 0 -3 -11 -27 -23 -54 -12 -27 -22 -54 -22 -60 0 -6 -6 -22 -13
-36 -13 -25 -61 -188 -71 -240 -3 -14 -7 -35 -10 -46 -14 -63 -23 -141 -27
-216 -3 -48 -12 -57 -15 -15 -6 83 -31 247 -43 279 -4 13 -7 31 -6 40 2 10 -1
20 -6 24 -5 3 -9 15 -9 28 0 12 -5 27 -12 34 -7 7 -9 12 -5 12 7 0 -36 132
-53 162 -6 10 -10 23 -10 28 0 9 -67 147 -111 230 -22 40 -145 222 -171 251
-13 15 -35 42 -50 60 -14 19 -64 71 -110 116 -73 71 -103 99 -156 143 -102 87
-274 190 -457 276 -38 17 -194 75 -218 79 -9 2 -21 6 -25 9 -5 3 -19 7 -33 10
-13 2 -54 11 -92 20 -37 9 -87 18 -110 22 -23 3 -60 8 -82 11 -47 6 -402 13
-407 7z m6178 -6334 c1 -16 -1 -30 -5 -30 -3 0 -7 14 -7 30 -1 17 1 30 5 30 3
0 7 -13 7 -30z m1 -115 c0 -8 -4 -12 -9 -9 -5 3 -6 10 -3 15 9 13 12 11 12 -6z"/>
</g>
</svg>
